<?xml version="1.0" encoding="UTF-8" ?>
<!DOCTYPE svg PUBLIC "-//W3C//DTD SVG 1.1//EN" "http://www.w3.org/Graphics/SVG/1.1/DTD/svg11.dtd">
<svg width="439pt" height="387pt" viewBox="0 0 439 387" version="1.1" xmlns="http://www.w3.org/2000/svg">
<g id="#030303fe">
<path fill="#F0F0F0" opacity="1.00" d=" M 210.14 0.00 L 211.02 0.00 C 236.52 37.34 269.31 70.47 292.87 109.04 C 344.78 171.07 380.82 243.19 415.02 316.06 C 418.80 339.87 435.35 359.12 439.00 383.21 L 439.00 384.10 C 436.18 383.96 433.78 385.42 431.59 387.00 L 418.55 387.00 C 388.73 309.79 349.26 236.54 303.05 167.95 C 276.84 127.86 242.02 94.29 215.34 54.71 C 202.50 58.25 198.04 75.46 187.80 83.82 C 117.99 170.51 53.57 266.28 28.24 376.24 C 26.60 380.09 26.59 386.02 21.60 387.00 L 20.68 387.00 C 13.83 385.91 6.93 385.35 0.00 385.10 L 0.00 373.96 C 32.88 231.90 121.11 112.21 210.14 0.00 Z" />
</g>
</svg>
